<mxfile host="app.diagrams.net" modified="2022-11-26T13:39:39.543Z" agent="5.0 (Windows NT 10.0; Win64; x64) AppleWebKit/537.36 (KHTML, like Gecko) Chrome/107.0.0.0 Safari/537.36" version="20.6.0" etag="mcltBGt-qN4_Ydp0BGiD" type="github">
  <diagram id="BqlMYKcsw9e2q4S42ORV" name="第 1 页">
    <mxGraphModel dx="1038" dy="547" grid="1" gridSize="10" guides="1" tooltips="1" connect="1" arrows="1" fold="1" page="1" pageScale="1" pageWidth="827" pageHeight="1169" math="0" shadow="0">
      <root>
        <mxCell id="0" />
        <mxCell id="1" parent="0" />
        <mxCell id="Gq5B5mHj4HZL16rWCQwO-24" value="" style="group" vertex="1" connectable="0" parent="1">
          <mxGeometry x="30" y="40" width="246" height="290" as="geometry" />
        </mxCell>
        <mxCell id="Gq5B5mHj4HZL16rWCQwO-10" value="&lt;br&gt;&lt;br&gt;x86服务器" style="rounded=1;whiteSpace=wrap;html=1;fillColor=#FFFFFF;dashed=1;" vertex="1" parent="Gq5B5mHj4HZL16rWCQwO-24">
          <mxGeometry y="240" width="246" height="50" as="geometry" />
        </mxCell>
        <mxCell id="Gq5B5mHj4HZL16rWCQwO-5" value="" style="sketch=0;aspect=fixed;pointerEvents=1;shadow=0;dashed=0;html=1;strokeColor=none;labelPosition=center;verticalLabelPosition=bottom;verticalAlign=top;align=center;fillColor=#1A1A1A;shape=mxgraph.azure.server" vertex="1" parent="Gq5B5mHj4HZL16rWCQwO-24">
          <mxGeometry x="6" y="250" width="50" height="15" as="geometry" />
        </mxCell>
        <mxCell id="Gq5B5mHj4HZL16rWCQwO-6" value="" style="sketch=0;aspect=fixed;pointerEvents=1;shadow=0;dashed=0;html=1;strokeColor=none;labelPosition=center;verticalLabelPosition=bottom;verticalAlign=top;align=center;fillColor=#1A1A1A;shape=mxgraph.azure.server" vertex="1" parent="Gq5B5mHj4HZL16rWCQwO-24">
          <mxGeometry x="96" y="250" width="50" height="15" as="geometry" />
        </mxCell>
        <mxCell id="Gq5B5mHj4HZL16rWCQwO-7" value="" style="sketch=0;aspect=fixed;pointerEvents=1;shadow=0;dashed=0;html=1;strokeColor=none;labelPosition=center;verticalLabelPosition=bottom;verticalAlign=top;align=center;fillColor=#1A1A1A;shape=mxgraph.azure.server" vertex="1" parent="Gq5B5mHj4HZL16rWCQwO-24">
          <mxGeometry x="189.5" y="250" width="50" height="15" as="geometry" />
        </mxCell>
        <mxCell id="Gq5B5mHj4HZL16rWCQwO-11" value="&lt;br&gt;&lt;br&gt;&lt;br&gt;硬盘集群" style="rounded=1;whiteSpace=wrap;html=1;dashed=1;fillColor=#FFFFFF;" vertex="1" parent="Gq5B5mHj4HZL16rWCQwO-24">
          <mxGeometry y="160" width="246" height="70" as="geometry" />
        </mxCell>
        <mxCell id="Gq5B5mHj4HZL16rWCQwO-12" value="" style="sketch=0;pointerEvents=1;shadow=0;dashed=0;html=1;strokeColor=none;fillColor=#1A1A1A;labelPosition=center;verticalLabelPosition=bottom;verticalAlign=top;align=center;outlineConnect=0;shape=mxgraph.veeam2.hdd;" vertex="1" parent="Gq5B5mHj4HZL16rWCQwO-24">
          <mxGeometry x="17" y="168" width="28.000000000000004" height="35" as="geometry" />
        </mxCell>
        <mxCell id="Gq5B5mHj4HZL16rWCQwO-13" value="" style="sketch=0;pointerEvents=1;shadow=0;dashed=0;html=1;strokeColor=none;fillColor=#1A1A1A;labelPosition=center;verticalLabelPosition=bottom;verticalAlign=top;align=center;outlineConnect=0;shape=mxgraph.veeam2.hdd;" vertex="1" parent="Gq5B5mHj4HZL16rWCQwO-24">
          <mxGeometry x="109" y="167.5" width="28.000000000000004" height="35" as="geometry" />
        </mxCell>
        <mxCell id="Gq5B5mHj4HZL16rWCQwO-14" value="" style="sketch=0;pointerEvents=1;shadow=0;dashed=0;html=1;strokeColor=none;fillColor=#1A1A1A;labelPosition=center;verticalLabelPosition=bottom;verticalAlign=top;align=center;outlineConnect=0;shape=mxgraph.veeam2.hdd;" vertex="1" parent="Gq5B5mHj4HZL16rWCQwO-24">
          <mxGeometry x="200.5" y="168" width="28.000000000000004" height="35" as="geometry" />
        </mxCell>
        <mxCell id="Gq5B5mHj4HZL16rWCQwO-17" value="存储资源池" style="ellipse;whiteSpace=wrap;html=1;dashed=1;fillColor=#FFFFFF;" vertex="1" parent="Gq5B5mHj4HZL16rWCQwO-24">
          <mxGeometry y="90" width="246" height="60" as="geometry" />
        </mxCell>
        <mxCell id="Gq5B5mHj4HZL16rWCQwO-18" value="" style="rounded=1;whiteSpace=wrap;html=1;dashed=1;fillColor=#FFFFFF;" vertex="1" parent="Gq5B5mHj4HZL16rWCQwO-24">
          <mxGeometry width="246" height="60" as="geometry" />
        </mxCell>
        <mxCell id="Gq5B5mHj4HZL16rWCQwO-19" value="应用" style="rounded=1;whiteSpace=wrap;html=1;dashed=1;fillColor=#FFFFFF;" vertex="1" parent="Gq5B5mHj4HZL16rWCQwO-24">
          <mxGeometry x="6" y="10" width="59" height="30" as="geometry" />
        </mxCell>
        <mxCell id="Gq5B5mHj4HZL16rWCQwO-20" value="应用" style="rounded=1;whiteSpace=wrap;html=1;dashed=1;fillColor=#FFFFFF;" vertex="1" parent="Gq5B5mHj4HZL16rWCQwO-24">
          <mxGeometry x="87" y="10" width="59" height="30" as="geometry" />
        </mxCell>
        <mxCell id="Gq5B5mHj4HZL16rWCQwO-21" value="应用" style="rounded=1;whiteSpace=wrap;html=1;dashed=1;fillColor=#FFFFFF;" vertex="1" parent="Gq5B5mHj4HZL16rWCQwO-24">
          <mxGeometry x="169.5" y="10" width="59" height="30" as="geometry" />
        </mxCell>
        <mxCell id="Gq5B5mHj4HZL16rWCQwO-22" value="" style="shape=singleArrow;direction=north;whiteSpace=wrap;html=1;fillColor=#FFFFFF;" vertex="1" parent="Gq5B5mHj4HZL16rWCQwO-24">
          <mxGeometry x="15" y="60" width="50" height="40" as="geometry" />
        </mxCell>
        <mxCell id="Gq5B5mHj4HZL16rWCQwO-23" value="" style="shape=singleArrow;direction=north;whiteSpace=wrap;html=1;fillColor=#FFFFFF;" vertex="1" parent="Gq5B5mHj4HZL16rWCQwO-24">
          <mxGeometry x="186" y="60" width="50" height="40" as="geometry" />
        </mxCell>
        <mxCell id="Gq5B5mHj4HZL16rWCQwO-25" value="&lt;br&gt;&lt;br&gt;&lt;br&gt;&lt;br&gt;&lt;br&gt;&lt;br&gt;&lt;br&gt;&lt;br&gt;&lt;br&gt;ADMIN" style="rounded=1;whiteSpace=wrap;html=1;fillColor=#FFFFFF;" vertex="1" parent="1">
          <mxGeometry x="370" y="120" width="80" height="180" as="geometry" />
        </mxCell>
        <mxCell id="Gq5B5mHj4HZL16rWCQwO-26" value="&lt;br&gt;&lt;br&gt;&lt;br&gt;&lt;br&gt;&lt;br&gt;&lt;br&gt;&lt;br&gt;&lt;br&gt;&lt;br&gt;NORMAL" style="rounded=1;whiteSpace=wrap;html=1;fillColor=#FFFFFF;" vertex="1" parent="1">
          <mxGeometry x="480" y="120" width="80" height="180" as="geometry" />
        </mxCell>
        <mxCell id="Gq5B5mHj4HZL16rWCQwO-29" value="&lt;br&gt;&lt;br&gt;&lt;br&gt;&lt;br&gt;&lt;br&gt;&lt;br&gt;&lt;br&gt;&lt;br&gt;&lt;br&gt;NORMAL" style="rounded=1;whiteSpace=wrap;html=1;fillColor=#FFFFFF;" vertex="1" parent="1">
          <mxGeometry x="590" y="120" width="80" height="180" as="geometry" />
        </mxCell>
        <mxCell id="Gq5B5mHj4HZL16rWCQwO-30" value="&lt;br&gt;&lt;br&gt;&lt;br&gt;&lt;br&gt;&lt;br&gt;&lt;br&gt;&lt;br&gt;&lt;br&gt;&lt;br&gt;NORMAL" style="rounded=1;whiteSpace=wrap;html=1;fillColor=#FFFFFF;" vertex="1" parent="1">
          <mxGeometry x="700" y="120" width="80" height="180" as="geometry" />
        </mxCell>
        <mxCell id="Gq5B5mHj4HZL16rWCQwO-31" value="LICH" style="rounded=0;whiteSpace=wrap;html=1;fillColor=#FFFFFF;" vertex="1" parent="1">
          <mxGeometry x="375" y="220" width="70" height="30" as="geometry" />
        </mxCell>
        <mxCell id="Gq5B5mHj4HZL16rWCQwO-32" value="LICH" style="rounded=0;whiteSpace=wrap;html=1;fillColor=#FFFFFF;" vertex="1" parent="1">
          <mxGeometry x="485" y="220" width="70" height="30" as="geometry" />
        </mxCell>
        <mxCell id="Gq5B5mHj4HZL16rWCQwO-33" value="LICH" style="rounded=0;whiteSpace=wrap;html=1;fillColor=#FFFFFF;" vertex="1" parent="1">
          <mxGeometry x="595" y="220" width="70" height="30" as="geometry" />
        </mxCell>
        <mxCell id="Gq5B5mHj4HZL16rWCQwO-34" value="LICH" style="rounded=0;whiteSpace=wrap;html=1;fillColor=#FFFFFF;" vertex="1" parent="1">
          <mxGeometry x="705" y="220" width="70" height="30" as="geometry" />
        </mxCell>
        <mxCell id="Gq5B5mHj4HZL16rWCQwO-35" value="UMP" style="rounded=0;whiteSpace=wrap;html=1;fillColor=#FFFFFF;" vertex="1" parent="1">
          <mxGeometry x="375" y="170" width="70" height="30" as="geometry" />
        </mxCell>
        <mxCell id="Gq5B5mHj4HZL16rWCQwO-36" value="AGENT" style="rounded=0;whiteSpace=wrap;html=1;fillColor=#FFFFFF;" vertex="1" parent="1">
          <mxGeometry x="485" y="170" width="70" height="30" as="geometry" />
        </mxCell>
        <mxCell id="Gq5B5mHj4HZL16rWCQwO-37" value="AGENT" style="rounded=0;whiteSpace=wrap;html=1;fillColor=#FFFFFF;" vertex="1" parent="1">
          <mxGeometry x="595" y="170" width="70" height="30" as="geometry" />
        </mxCell>
        <mxCell id="Gq5B5mHj4HZL16rWCQwO-38" value="AGENT" style="rounded=0;whiteSpace=wrap;html=1;fillColor=#FFFFFF;" vertex="1" parent="1">
          <mxGeometry x="705" y="170" width="70" height="30" as="geometry" />
        </mxCell>
      </root>
    </mxGraphModel>
  </diagram>
</mxfile>
